<svg width="19" height="15" viewBox="0 0 19 15" fill="none" xmlns="http://www.w3.org/2000/svg">
<path d="M11.098 0.120902C11.1303 0.125782 11.1627 0.130661 11.1961 0.135689C13.2198 0.450561 15.1662 1.36829 16.418 2.72799C16.4356 2.74683 16.4532 2.76567 16.4713 2.78508C17.6353 4.03807 18.2865 5.56228 18.2768 7.14071C18.2767 7.16434 18.2767 7.18797 18.2766 7.21232C18.268 8.80889 17.6155 10.3698 16.3811 11.6103C16.351 11.6411 16.3209 11.672 16.2899 11.7038C15.8619 12.136 15.377 12.5244 14.8294 12.8532C14.7877 12.8788 14.7461 12.9045 14.7044 12.9302C13.5764 13.6167 12.259 14.0373 10.8763 14.2174C10.8486 14.2213 10.8209 14.2251 10.7924 14.2292C9.91401 14.3499 8.94121 14.316 8.06849 14.187C8.03543 14.1822 8.00237 14.1773 7.96831 14.1723C6.29839 13.9142 4.76731 13.2697 3.5514 12.298C3.49081 12.2497 3.42967 12.2018 3.36841 12.154C3.11454 11.9537 2.89352 11.7388 2.68238 11.5076C2.64282 11.4644 2.60252 11.4217 2.56211 11.379C1.45454 10.1816 0.880454 8.66359 0.889635 7.16724C0.889714 7.1436 0.889794 7.11997 0.889876 7.09563C0.897292 5.71428 1.37905 4.32512 2.34203 3.18271C2.36593 3.15428 2.36593 3.15428 2.39032 3.12528C2.91256 2.51075 3.53648 1.93592 4.275 1.49208C4.33695 1.45482 4.39819 1.41688 4.45943 1.37885C5.57162 0.697863 6.88909 0.27565 8.25321 0.0905868C8.27993 0.0866936 8.30665 0.0828005 8.33417 0.0787894C9.21842 -0.0461579 10.2196 -0.0153632 11.098 0.120902ZM4.59567 3.03114C4.5669 3.05314 4.53814 3.07514 4.5085 3.09781C3.5445 3.85655 2.9199 4.91131 2.63759 5.97169C2.63154 5.99328 2.62549 6.01487 2.61926 6.03712C2.41296 6.80308 2.45187 7.69898 2.67453 8.45752C2.68226 8.48445 2.68998 8.51138 2.69793 8.53914C2.93423 9.33941 3.38106 10.0869 4.00455 10.7311C4.02097 10.7481 4.0374 10.7651 4.05432 10.7826C5.22555 11.9803 6.9254 12.7642 8.79108 12.9364C10.6652 13.0964 12.5495 12.6532 14.0186 11.6814C15.4821 10.6865 16.4431 9.29026 16.6397 7.72996C16.6536 7.54444 16.6541 7.35872 16.6536 7.17292C16.6535 7.14767 16.6535 7.12241 16.6535 7.09639C16.6519 6.67134 16.6136 6.26496 16.4919 5.85043C16.4842 5.82349 16.4765 5.79656 16.4685 5.76881C16.2322 4.96853 15.7854 4.22105 15.1619 3.57681C15.1373 3.55133 15.1373 3.55133 15.1121 3.52534C13.9396 2.32629 12.2461 1.54925 10.381 1.372C8.20726 1.18628 6.16478 1.8043 4.59567 3.03114Z" fill="#FCA311"/>
<path d="M10.1283 2.75066C10.2653 2.8631 10.3612 2.99401 10.3961 3.15233C10.3954 3.22066 10.3954 3.22066 10.3878 3.29685C10.3838 3.34041 10.3838 3.34041 10.3797 3.38485C10.3766 3.41657 10.3735 3.44829 10.3703 3.48097C10.3281 3.95906 10.301 4.43717 10.2853 4.91629C10.2846 4.93764 10.2839 4.95899 10.2831 4.98099C10.2278 6.41168 10.2278 6.41168 11.038 7.63361C11.453 7.98504 11.9372 8.28686 12.4415 8.54665C12.6498 8.68 12.7154 8.83462 12.7537 9.04113C12.7702 9.24003 12.6899 9.39303 12.5389 9.54879C12.3444 9.69247 12.1752 9.75638 11.9109 9.761C11.4107 9.7348 11.0584 9.34376 10.7269 9.07145C10.6773 9.03087 10.6277 8.99029 10.5781 8.94972C10.4746 8.86505 10.3713 8.78027 10.2681 8.69541C10.1362 8.58707 10.004 8.47909 9.87167 8.37119C9.76929 8.28763 9.66717 8.20386 9.56512 8.12003C9.51649 8.08014 9.46776 8.04032 9.41895 8.00057C9.35063 7.94488 9.28267 7.88891 9.21479 7.83286C9.18496 7.80874 9.18496 7.80874 9.15453 7.78412C8.91182 7.58221 8.76641 7.393 8.76536 7.1057C8.76515 7.07119 8.76494 7.03669 8.76472 7.00113C8.76466 6.94453 8.76466 6.94453 8.7646 6.88679C8.76441 6.84695 8.76423 6.80711 8.76404 6.76606C8.76356 6.65682 8.76332 6.54758 8.76315 6.43834C8.76304 6.37003 8.76289 6.30171 8.76273 6.2334C8.76222 6.01948 8.76186 5.80557 8.76172 5.59165C8.76156 5.34506 8.76091 5.09847 8.75984 4.85188C8.75904 4.66105 8.75867 4.47023 8.75862 4.2794C8.75858 4.16553 8.75836 4.05167 8.7577 3.9378C8.75709 3.83061 8.75701 3.72342 8.75734 3.61622C8.75738 3.55841 8.75687 3.50061 8.75635 3.4428C8.75791 3.17814 8.79007 2.95443 9.02916 2.75824C9.39249 2.55206 9.76105 2.55891 10.1283 2.75066Z" fill="#FCA311"/>
</svg>
