<svg width="24" height="22" viewBox="0 0 24 22" fill="none" xmlns="http://www.w3.org/2000/svg">
<path d="M12.2715 0.461236C12.4532 0.579554 12.6206 0.705829 12.7849 0.840059C12.8284 0.874242 12.8284 0.874242 12.8728 0.909115C13.6371 1.56553 13.6839 2.58151 13.8292 3.43119C13.8345 3.46196 13.8398 3.49273 13.8452 3.52443C13.8597 3.60929 13.8741 3.69417 13.8884 3.77905C13.9101 3.91323 13.9101 3.91323 13.9658 4.03901C13.9872 4.0236 14.0085 4.00819 14.0304 3.99231C14.2007 3.86967 14.3716 3.74767 14.5441 3.62714C14.6048 3.58466 14.6656 3.54219 14.7264 3.49971C14.7574 3.47804 14.7884 3.45637 14.8204 3.43404C15.0145 3.29785 15.2036 3.15835 15.3906 3.01566C15.9974 2.56186 16.6756 2.241 17.5085 2.18699C17.5421 2.18471 17.5756 2.18243 17.6102 2.18008C18.1516 2.16176 18.7276 2.26976 19.2029 2.48163C19.2432 2.49834 19.2835 2.51505 19.325 2.53227C20.0473 2.85474 20.5607 3.3926 20.793 4.03569C21.0063 4.70194 20.9375 5.39676 20.5506 6.01205C20.349 6.29052 20.1033 6.5498 19.819 6.77495C19.8596 6.77893 19.9002 6.7829 19.9421 6.787C20.1792 6.82551 20.3961 6.89166 20.622 6.96108C20.6694 6.97547 20.7167 6.98986 20.7655 7.00468C20.8655 7.03514 20.9655 7.06571 21.0653 7.09639C21.2167 7.14283 21.3683 7.18878 21.5199 7.23467C21.6175 7.26446 21.715 7.29427 21.8126 7.32412C21.8796 7.34438 21.8796 7.34438 21.9479 7.36506C22.6988 7.59695 23.3113 7.88574 23.6697 8.5007C24.115 9.34006 23.6816 10.1464 23.32 10.9473C23.278 11.0417 23.2361 11.1361 23.1943 11.2306C23.0396 11.5783 22.8841 11.9255 22.7159 12.269C22.696 12.3099 22.676 12.3508 22.6555 12.393C22.5618 12.5489 22.4618 12.6177 22.2835 12.7098C21.9594 12.7984 21.7111 12.7565 21.396 12.6669C21.3409 12.6514 21.2859 12.6359 21.2291 12.6199C21.1874 12.6079 21.1456 12.5959 21.1026 12.5836C21.1027 12.6385 21.1027 12.6385 21.1029 12.6946C21.1051 13.5873 21.1068 14.48 21.1079 15.3728C21.1084 15.8045 21.1091 16.2362 21.1103 16.6679C21.1113 17.0444 21.112 17.4208 21.1122 17.7973C21.1124 17.9965 21.1127 18.1957 21.1134 18.3948C21.1141 18.5826 21.1143 18.7704 21.1142 18.9582C21.1142 19.0269 21.1144 19.0955 21.1148 19.1641C21.119 19.9244 21.0221 20.5476 20.3541 21.1201C19.828 21.5103 19.2727 21.6102 18.5813 21.6077C18.5145 21.608 18.4477 21.6083 18.3789 21.6085C18.1945 21.6092 18.0101 21.6091 17.8257 21.6089C17.6264 21.6088 17.4271 21.6094 17.2278 21.6099C16.8377 21.6108 16.4477 21.611 16.0576 21.6109C15.7404 21.6108 15.4232 21.611 15.106 21.6113C15.0145 21.6114 14.923 21.6115 14.8315 21.6116C14.786 21.6116 14.7404 21.6117 14.6935 21.6117C13.8328 21.6125 12.972 21.6125 12.1112 21.6122C11.3247 21.6119 10.5381 21.6128 9.75157 21.6142C8.94306 21.6156 8.13456 21.6163 7.32605 21.6161C6.87248 21.616 6.41892 21.6162 5.96536 21.6173C5.57916 21.6181 5.19298 21.6183 4.80679 21.6175C4.60996 21.6171 4.41315 21.6171 4.21632 21.6179C4.0024 21.6189 3.78854 21.6182 3.57462 21.6173C3.51315 21.6178 3.45168 21.6184 3.38835 21.6189C2.68557 21.6129 2.14891 21.4009 1.64704 21.0086C0.976939 20.4321 1.01197 19.6883 1.01321 18.9447C1.01299 18.8559 1.01272 18.7672 1.01241 18.6784C1.01173 18.4385 1.0117 18.1986 1.01183 17.9587C1.01188 17.7581 1.01163 17.5576 1.01139 17.3571C1.01082 16.8841 1.01079 16.4111 1.0111 15.9381C1.01141 15.4504 1.01078 14.9627 1.00969 14.4749C1.00878 14.0557 1.00848 13.6364 1.00864 13.2172C1.00874 12.967 1.0086 12.7168 1.00789 12.4666C1.00724 12.2315 1.00734 11.9965 1.00801 11.7614C1.00813 11.6752 1.00799 11.589 1.00757 11.5028C1.00703 11.385 1.00745 11.2673 1.0081 11.1495C1.00772 11.1155 1.00734 11.0814 1.00695 11.0464C1.00977 10.8036 1.05736 10.5943 1.26016 10.4057C1.53774 10.2369 1.70092 10.2201 2.04106 10.2198C2.08811 10.2196 2.13516 10.2194 2.18364 10.2192C2.34226 10.2185 2.50087 10.2182 2.65949 10.2178C2.77282 10.2174 2.88614 10.217 2.99946 10.2165C3.30793 10.2154 3.6164 10.2145 3.92487 10.2137C4.24694 10.2128 4.569 10.2116 4.89106 10.2105C5.43189 10.2086 5.97273 10.2069 6.51356 10.2053C7.07068 10.2036 7.6278 10.2019 8.18493 10.2C8.21925 10.1999 8.25358 10.1998 8.28894 10.1997C8.46114 10.1991 8.63334 10.1985 8.80554 10.198C10.2347 10.1932 11.6639 10.1887 13.093 10.1844C13.0571 10.1738 13.0212 10.1632 12.9842 10.1523C12.638 10.0501 12.2918 9.94786 11.9456 9.84559C11.7678 9.79308 11.59 9.74058 11.4122 9.68812C10.4274 9.39752 9.44419 9.10351 8.46247 8.80587C8.33424 8.76702 8.206 8.72817 8.07776 8.68933C8.0206 8.67201 7.96344 8.6547 7.90455 8.63686C7.18803 8.41995 6.4699 8.20692 5.7509 7.99561C4.85495 7.73211 3.96008 7.46625 3.06653 7.19733C2.93621 7.15811 2.80584 7.11898 2.67544 7.07993C2.4938 7.02549 2.31228 6.9708 2.13079 6.91603C2.07705 6.89997 2.02332 6.88391 1.96795 6.86736C1.09522 6.60285 1.09522 6.60285 0.924625 6.31195C0.856613 6.04236 0.890642 5.86792 1.00485 5.61218C1.02037 5.57591 1.03589 5.53963 1.05188 5.50226C1.08883 5.4167 1.12629 5.33128 1.16412 5.24597C1.21478 5.13169 1.26496 5.0173 1.31469 4.90275C1.39085 4.72736 1.46772 4.55219 1.54504 4.37715C1.57603 4.30691 1.60688 4.23664 1.63759 4.16632C2.24391 2.78206 2.24391 2.78206 3.08426 2.42112C4.2518 1.98757 5.29748 2.39062 6.41837 2.72628C6.50367 2.7517 6.58897 2.7771 6.67428 2.80249C6.87999 2.86374 7.08562 2.92518 7.2912 2.98672C7.29391 2.93265 7.29661 2.87859 7.29939 2.82288C7.3034 2.75078 7.30742 2.67868 7.31146 2.60658C7.31404 2.55334 7.31404 2.55334 7.31668 2.49901C7.35626 1.81775 7.68866 1.20652 8.26673 0.713785C8.59275 0.485381 8.94887 0.301378 9.34494 0.166596C9.40331 0.146412 9.40331 0.146412 9.46287 0.12582C10.3849 -0.134172 11.4759 0.0238093 12.2715 0.461236ZM9.26993 1.76656C8.93261 2.12381 8.87053 2.4545 8.93419 2.90254C9.04015 3.25306 9.34198 3.54449 9.7063 3.74038C9.92083 3.83851 10.1551 3.90068 10.3856 3.96864C10.4686 3.99351 10.4686 3.99351 10.5532 4.01888C10.729 4.0715 10.905 4.12365 11.081 4.17581C11.2004 4.21151 11.3197 4.24725 11.4391 4.28301C11.6563 4.34791 11.8735 4.41282 12.091 4.47723C12.1346 4.49018 12.1783 4.50313 12.2232 4.51648C12.3134 4.54636 12.3134 4.54636 12.3742 4.54411C12.3452 4.11787 12.2773 3.6991 12.1986 3.27741C12.1784 3.16806 12.1591 3.05862 12.1398 2.94915C12.0461 2.43365 11.951 1.95866 11.45 1.59771C10.7412 1.20311 9.86119 1.23016 9.26993 1.76656ZM3.64582 3.70228C3.46238 3.90127 3.36251 4.10293 3.26316 4.33562C3.24749 4.3715 3.23183 4.40738 3.21569 4.44435C3.18288 4.51971 3.15027 4.59513 3.11785 4.67061C3.06806 4.78647 3.01765 4.90215 2.96713 5.0178C2.93527 5.09118 2.90345 5.16456 2.87166 5.23796C2.85658 5.27264 2.8415 5.30732 2.82597 5.34305C2.74954 5.50779 2.74954 5.50779 2.72164 5.68058C3.44553 5.91701 4.1772 6.1345 4.91068 6.35001C5.25639 6.4516 5.60192 6.55358 5.94745 6.65558C5.98228 6.66586 6.0171 6.67614 6.05299 6.68673C6.7716 6.89888 7.48895 7.11381 8.20576 7.33003C8.25871 7.346 8.31166 7.36197 8.36622 7.37842C8.59942 7.44877 8.8326 7.51916 9.06572 7.58968C9.10394 7.60118 9.14215 7.61269 9.18153 7.62453C9.2571 7.64769 9.33238 7.67151 9.40736 7.69594C9.58847 7.75448 9.71223 7.78515 9.90972 7.78515C10.049 7.47585 10.1879 7.16644 10.3265 6.85695C10.3737 6.75161 10.421 6.64633 10.4685 6.54106C10.5365 6.38995 10.6042 6.23874 10.6718 6.08751C10.6932 6.04029 10.7145 5.99307 10.7365 5.94441C10.756 5.9006 10.7756 5.85679 10.7957 5.81165C10.813 5.77305 10.8304 5.73444 10.8482 5.69467C10.8928 5.59343 10.8928 5.59343 10.8852 5.47012C9.63465 5.09006 8.38173 4.71534 7.12703 4.3445C5.97112 4.00285 5.97112 4.00285 5.43943 3.83743C5.36723 3.81511 5.29503 3.79278 5.22283 3.77046C5.09912 3.73218 4.97592 3.69315 4.85279 3.65358C4.42141 3.51977 4.0254 3.42728 3.64582 3.70228ZM16.0527 4.30956C15.8658 4.45606 15.6689 4.59297 15.4717 4.72996C15.4063 4.77538 15.341 4.82084 15.2757 4.86635C15.2099 4.91221 15.1439 4.95793 15.0778 5.00352C14.9092 5.11553 14.9092 5.11553 14.7873 5.25966C15.4319 5.45955 16.0774 5.65713 16.7255 5.84894C16.7802 5.86516 16.8348 5.88138 16.8911 5.89809C16.9421 5.91313 16.9931 5.92816 17.0456 5.94365C17.0905 5.95689 17.1354 5.97013 17.1816 5.98377C17.614 6.10306 17.9978 6.09573 18.4165 5.94102C18.8438 5.76142 19.0935 5.52583 19.2735 5.15706C19.3615 4.74582 19.3107 4.37819 19.0192 4.02503C18.7035 3.71084 18.3441 3.58601 17.8679 3.49182C17.0591 3.49182 16.5982 3.87879 16.0527 4.30956ZM12.4255 5.93312C12.2037 6.35155 12.0114 6.77834 11.8204 7.20671C11.7672 7.32592 11.7136 7.445 11.6599 7.56409C11.626 7.64001 11.592 7.71595 11.5581 7.79189C11.5421 7.8274 11.526 7.86291 11.5095 7.8995C11.4949 7.93241 11.4803 7.96532 11.4653 7.99923C11.4459 8.04251 11.4459 8.04251 11.4262 8.08667C11.3915 8.17075 11.3915 8.17075 11.3987 8.29025C11.6104 8.3536 11.8222 8.41666 12.034 8.47966C12.0944 8.49773 12.1548 8.51579 12.217 8.53441C12.2745 8.5515 12.3321 8.56859 12.3914 8.5862C12.4447 8.60207 12.4979 8.61794 12.5528 8.63429C12.6758 8.67344 12.6758 8.67344 12.7849 8.66907C12.8818 8.45441 12.9785 8.23972 13.0751 8.02501C13.1079 7.95231 13.1406 7.87962 13.1734 7.80694C13.3912 7.32404 13.6046 6.84007 13.8118 6.35404C13.3567 6.19237 12.8973 6.05729 12.4255 5.93312ZM15.3008 6.81705C15.0783 7.23609 14.8866 7.66376 14.6956 8.09294C14.6424 8.2126 14.5888 8.33216 14.5351 8.45171C14.5012 8.52777 14.4673 8.60384 14.4333 8.67992C14.4173 8.71565 14.4013 8.75138 14.3847 8.78819C14.3702 8.82111 14.3556 8.85402 14.3405 8.88793C14.3276 8.91688 14.3147 8.94583 14.3014 8.97565C14.2688 9.04867 14.2688 9.04867 14.2739 9.13208C15.0819 9.38255 15.8924 9.62682 16.705 9.86687C17.0268 9.96193 17.3484 10.0572 17.67 10.1526C17.703 10.1624 17.7361 10.1722 17.7701 10.1823C18.559 10.4165 19.3464 10.6539 20.1335 10.892C20.166 10.9019 20.1985 10.9117 20.232 10.9218C20.625 11.0407 21.0178 11.1596 21.4106 11.2787C21.533 11.1283 21.6027 10.9705 21.6788 10.8021C21.7023 10.7503 21.7023 10.7503 21.7263 10.6975C21.7594 10.6244 21.7924 10.5512 21.8254 10.4781C21.8755 10.3669 21.9263 10.2559 21.9771 10.145C22.0093 10.0738 22.0414 10.0026 22.0735 9.93132C22.0886 9.89847 22.1038 9.86561 22.1194 9.83177C22.2206 9.60416 22.3245 9.35838 22.2544 9.11563C22.2375 9.08981 22.2206 9.06398 22.2032 9.03737C22.1793 8.99798 22.1793 8.99798 22.1549 8.95779C21.9137 8.71206 21.5316 8.63047 21.1824 8.52948C21.1239 8.51225 21.0655 8.49503 21.0052 8.47728C20.8462 8.43049 20.6871 8.384 20.5279 8.33762C20.3613 8.28899 20.1949 8.23996 20.0284 8.19094C19.8227 8.13035 19.6169 8.06978 19.4111 8.00935C18.7682 7.82058 18.1264 7.62922 17.4851 7.43692C17.3165 7.3864 17.1479 7.33597 16.9793 7.28555C16.8751 7.25435 16.771 7.22314 16.6668 7.19192C16.5938 7.17008 16.5938 7.17008 16.5194 7.14779C16.2024 7.0525 15.8873 6.95387 15.574 6.8505C15.4515 6.81023 15.4515 6.81023 15.3008 6.81705ZM2.61896 11.5313C2.61447 12.9989 2.61447 12.9989 2.61144 14.4665C2.61052 15.0648 2.60944 15.6632 2.60734 16.2615C2.6058 16.6973 2.60481 17.133 2.60446 17.5687C2.60426 17.7995 2.60379 18.0302 2.60267 18.261C2.60163 18.4781 2.6013 18.6953 2.60153 18.9125C2.60149 18.9922 2.60119 19.0719 2.60059 19.1516C2.59983 19.2605 2.60001 19.3693 2.60043 19.4781C2.59998 19.5097 2.59954 19.5412 2.59907 19.5737C2.60167 19.8229 2.67285 19.9938 2.88851 20.1706C4.53182 21.0279 6.78099 20.3284 8.72882 20.3284C8.72882 17.4254 8.72882 14.5223 8.72882 11.5313C6.71256 11.5313 4.69631 11.5313 2.61896 11.5313ZM10.3205 11.5313C10.3205 14.4343 10.3205 17.3374 10.3205 20.3284C10.8118 20.3284 11.3032 20.3284 11.8094 20.3284C11.8094 17.4254 11.8094 14.5223 11.8094 11.5313C11.3181 11.5313 10.8267 11.5313 10.3205 11.5313ZM13.4011 11.5313C13.4011 14.4343 13.4011 17.3374 13.4011 20.3284C16.6627 20.7735 16.6627 20.7735 19.3569 20.0785C19.5182 19.876 19.5183 19.7059 19.5171 19.4685C19.5171 19.4369 19.5172 19.4053 19.5172 19.3728C19.5173 19.2669 19.517 19.1609 19.5168 19.055C19.5167 18.9791 19.5168 18.9032 19.5168 18.8273C19.5168 18.6211 19.5165 18.4149 19.5161 18.2087C19.5158 17.9933 19.5158 17.7779 19.5157 17.5624C19.5156 17.1544 19.5151 16.7464 19.5146 16.3384C19.5141 15.8739 19.5138 15.4095 19.5135 14.945C19.513 13.9895 19.5121 13.034 19.5109 12.0785C19.374 12.0346 19.2371 11.9907 19.1002 11.9469C19.0444 11.929 19.0444 11.929 18.9875 11.9108C16.8585 11.2304 16.7417 11.5313 13.4011 11.5313Z" fill="#FCA311"/>
</svg>
